<svg width="70" height="70" viewBox="0 0 70 70" fill="none" xmlns="http://www.w3.org/2000/svg">
<path fill-rule="evenodd" clip-rule="evenodd" d="M47.2712 3.56095C45.9958 2.66705 44.4762 2.18751 42.9188 2.1875H27.0667C25.5096 2.18729 23.9902 2.66641 22.7149 3.55976C21.4395 4.45311 20.4701 5.71738 19.9383 7.18083H12.6671C9.29542 7.18083 6.5625 9.91083 6.5625 13.2767V61.7196C6.56405 63.3373 7.20798 64.8883 8.35273 66.0314C9.49748 67.1745 11.0493 67.8162 12.6671 67.8154H57.3183C60.69 67.8154 63.4229 65.0854 63.4229 61.7167V13.2796C63.4229 9.91375 60.69 7.18375 57.3183 7.18375H50.0471C49.5158 5.71975 48.5466 4.45485 47.2712 3.56095ZM22.5867 50H31C31.5941 50 32.1638 50.236 32.5839 50.6561C33.004 51.0762 33.24 51.6459 33.24 52.24C33.24 52.8341 33.004 53.4038 32.5839 53.8239C32.1638 54.244 31.5941 54.48 31 54.48H22.5487C21.9547 54.475 21.3869 54.2341 20.9704 53.8105C20.5539 53.3869 20.3227 52.8151 20.3277 52.221C20.3327 51.627 20.5736 51.0592 20.9972 50.6427C21.207 50.4364 21.4553 50.2735 21.728 50.1633C22.0007 50.053 22.2925 49.9975 22.5867 50ZM22.5867 25H47.3988C47.9785 25.0209 48.5275 25.2659 48.9302 25.6835C49.3329 26.101 49.5579 26.6585 49.5579 27.2385C49.5579 27.8186 49.3329 28.3761 48.9302 28.7936C48.5275 29.2111 47.9785 29.4562 47.3988 29.4771H22.5487C21.9688 29.4518 21.4213 29.2024 21.0217 28.7814C20.622 28.3604 20.4014 27.8007 20.4063 27.2202C20.4113 26.6398 20.6413 26.0839 21.048 25.6697C21.4548 25.2556 22.0064 25.0154 22.5867 25ZM27.0667 6.66458H42.9188C43.741 6.66458 44.5296 6.99123 45.1111 7.57267C45.6925 8.15412 46.0192 8.94272 46.0192 9.765C46.0192 10.5873 45.6925 11.3759 45.1111 11.9573C44.5296 12.5388 43.741 12.8654 42.9188 12.8654H27.0667C26.2444 12.8654 25.4558 12.5388 24.8743 11.9573C24.2929 11.3759 23.9663 10.5873 23.9663 9.765C23.9663 8.94272 24.2929 8.15412 24.8743 7.57267C25.4558 6.99123 26.2444 6.66458 27.0667 6.66458ZM22.5867 37.02H39.76C40.3541 37.02 40.9238 37.256 41.3439 37.6761C41.764 38.0962 42 38.6659 42 39.26C42 39.8541 41.764 40.4238 41.3439 40.8439C40.9238 41.264 40.3541 41.5 39.76 41.5H22.5487C21.9547 41.495 21.3869 41.2541 20.9704 40.8305C20.5539 40.4069 20.3227 39.8351 20.3277 39.241C20.3327 38.647 20.5736 38.0792 20.9972 37.6627C21.207 37.4564 21.4553 37.2935 21.728 37.1833C22.0007 37.073 22.2925 37.0175 22.5867 37.02Z" fill="#333333"/>
</svg>
