<svg xmlns:xlink="http://www.w3.org/1999/xlink" data-v-5f2aea70="" width="24" height="24" viewBox="0 0 24 24" xmlns="http://www.w3.org/2000/svg"><path fill-rule="evenodd" clip-rule="evenodd" d="M5 4.5h4a.5.5 0 0 1 .5.5v4a.5.5 0 0 1-.5.5H5a.5.5 0 0 1-.5-.5V5a.5.5 0 0 1 .5-.5ZM3 5a2 2 0 0 1 2-2h4a2 2 0 0 1 2 2v4a2 2 0 0 1-2 2H5a2 2 0 0 1-2-2V5Zm2 9.5h4a.5.5 0 0 1 .5.5v4a.5.5 0 0 1-.5.5H5a.5.5 0 0 1-.5-.5v-4a.5.5 0 0 1 .5-.5ZM3 15a2 2 0 0 1 2-2h4a2 2 0 0 1 2 2v4a2 2 0 0 1-2 2H5a2 2 0 0 1-2-2v-4ZM13.25 5a.75.75 0 0 1 .75-.75h6a.75.75 0 0 1 0 1.5h-6a.75.75 0 0 1-.75-.75Zm.75 9.25a.75.75 0 0 0 0 1.5h6a.75.75 0 0 0 0-1.5h-6ZM13.25 9a.75.75 0 0 1 .75-.75h6a.75.75 0 0 1 0 1.5h-6a.75.75 0 0 1-.75-.75Zm.75 9.25a.75.75 0 0 0 0 1.5h6a.75.75 0 0 0 0-1.5h-6Z" fill="#66666C"></path></svg>