<svg width="200" height="200" viewBox="0 0 200 200" fill="none" xmlns="http://www.w3.org/2000/svg">
<g clip-path="url(#clip0_323_1288)">
<path d="M134.036 15.8498L65.9774 15.8498C64.1821 15.8498 62.5662 16.5818 61.3923 17.7557C60.2184 18.9296 59.4864 20.5454 59.4864 22.3408L59.5002 66.8526C57.622 68.3442 55.8404 69.96 54.1417 71.6588C44.0323 81.7682 37.2512 95.206 35.6078 110.163C35.1796 113.988 38.1904 117.358 42.0573 117.358L92.2454 117.358L92.2177 176.827C92.2177 177.545 92.4663 178.263 92.9359 178.816L97.6039 184.423C98.7778 185.845 100.918 185.915 102.203 184.63C102.272 184.561 102.341 184.492 102.396 184.409L107.064 178.802C107.534 178.25 107.782 177.531 107.782 176.813L107.782 117.317L157.97 117.317C159.766 117.317 161.382 116.585 162.556 115.411C163.895 114.071 164.641 112.165 164.42 110.122C162.486 92.6372 153.565 77.2521 140.5 66.8112L140.5 22.3132C140.514 18.7639 137.613 15.8636 134.036 15.8498ZM126.454 66.8526L126.454 73.6199L131.73 77.846C136.895 81.9892 141.149 86.9886 144.367 92.7477C146.245 96.1175 147.723 99.6392 148.786 103.299L51.2276 103.271C52.0287 100.509 53.0506 97.83 54.3212 95.2336C56.7795 90.1789 60.0665 85.5937 64.0716 81.5886C65.3974 80.2628 66.8061 78.9922 68.2838 77.8183L73.5595 73.5923V66.825V29.8953L126.454 29.8953V66.8526Z" fill="#666666"/>
</g>
<defs>
<clipPath id="clip0_323_1288">
<rect width="200" height="200" fill="white"/>
</clipPath>
</defs>
</svg>
