<svg width="206" height="35" viewBox="0 0 206 35" fill="none" xmlns="http://www.w3.org/2000/svg">
<g clip-path="url(#clip0_231_1433)">
<path d="M24.2626 29.5371H5.73757C5.41257 29.5371 5.10007 29.3642 4.93757 29.0926L0.962573 22.5618C0.876667 22.42 0.831299 22.2579 0.831299 22.0926C0.831299 21.9274 0.876667 21.7653 0.962573 21.6235L10.2251 5.93213C10.3876 5.64818 10.7001 5.47534 11.0376 5.47534H18.9751C19.3126 5.47534 19.6126 5.64818 19.7876 5.93213C23.2751 11.8334 28.5376 20.7346 28.9876 21.426C29.1126 21.5865 29.1751 21.7716 29.1751 21.9815C29.1751 22.2037 29.1001 22.4013 28.9626 22.5618C28.6376 23.0432 26.4376 26.784 25.0751 29.0803C24.9126 29.3642 24.6001 29.5371 24.2626 29.5371ZM6.26257 27.6852H23.7251C25.5876 24.5247 26.5876 22.8457 27.2001 21.9568C26.4876 20.9198 25.2376 18.821 22.7751 14.6605L18.4376 7.31485H11.5751L2.86257 22.0679L6.26257 27.6852Z" fill="black"/>
<path d="M24.2624 29.537C23.9374 29.537 23.6249 29.3765 23.4499 29.0803L10.2124 6.85803C10.15 6.75265 10.1093 6.63616 10.0925 6.51522C10.0757 6.39429 10.0832 6.27127 10.1145 6.15319C10.1458 6.03511 10.2004 5.92428 10.2751 5.82704C10.3498 5.72979 10.4432 5.64803 10.5499 5.58642C10.6566 5.52481 10.7745 5.48457 10.897 5.46798C11.0194 5.45139 11.144 5.45878 11.2635 5.48973C11.3831 5.52068 11.4953 5.57459 11.5938 5.64837C11.6922 5.72216 11.775 5.81437 11.8374 5.91976L25.0749 28.142C25.158 28.2831 25.2019 28.4433 25.2023 28.6065C25.2027 28.7697 25.1595 28.9301 25.0771 29.0716C24.9947 29.213 24.876 29.3305 24.733 29.4123C24.59 29.494 24.4276 29.537 24.2624 29.537Z" fill="black"/>
<path d="M5.73749 29.537C5.57225 29.537 5.40994 29.494 5.26691 29.4123C5.12388 29.3305 5.00518 29.213 4.92279 29.0716C4.8404 28.9301 4.79722 28.7697 4.79761 28.6065C4.798 28.4433 4.84193 28.2831 4.92499 28.142L18.1625 5.91976C18.2885 5.70693 18.4949 5.55224 18.7363 5.48973C18.9778 5.42722 19.2345 5.462 19.45 5.58642C19.6655 5.71085 19.8221 5.91472 19.8854 6.15319C19.9487 6.39166 19.9135 6.6452 19.7875 6.85803L6.54999 29.0803C6.46502 29.2183 6.34583 29.3327 6.20367 29.4126C6.06151 29.4925 5.90106 29.5354 5.73749 29.537Z" fill="black"/>
<path d="M27.5 23.0061H1.875C1.3625 23.0061 0.9375 22.5864 0.9375 22.0802C0.9375 21.574 1.3625 21.1543 1.875 21.1543H27.5C28.0125 21.1543 28.4375 21.574 28.4375 22.0802C28.4375 22.5864 28.0125 23.0061 27.5 23.0061Z" fill="black"/>
</g>
<path d="M53.1534 21.0787H45.0481V29.3578H40V5.6422H51.8341C53.9934 5.6422 55.5339 5.79756 56.4556 6.1083C58.0197 6.62969 59.2521 7.70935 60.1527 9.34727C60.8163 10.5797 61.1481 11.9174 61.1481 13.3604C61.1481 14.5718 60.9296 15.7146 60.4924 16.789C60.0553 17.8687 59.4444 18.7535 58.6596 19.4434C57.9487 20.0596 57.1982 20.4862 56.4082 20.7232C55.6129 20.9602 54.528 21.0787 53.1534 21.0787ZM45.0481 9.87656V16.8443H51.9052C53.1376 16.8443 54.004 16.6547 54.5043 16.2755C55.2363 15.6856 55.6024 14.656 55.6024 13.1866C55.6024 11.5961 55.0467 10.577 53.9355 10.1294C53.53 9.96083 52.8901 9.87656 52.0158 9.87656H45.0481ZM73.63 5.6422H82.1224V9.87656H75.5497C73.8433 9.87656 72.6004 9.99506 71.8209 10.2321C71.0362 10.4691 70.3831 10.9325 69.8618 11.6224C69.5089 12.0964 69.2666 12.5704 69.135 13.0444C69.0033 13.5184 68.8901 14.3242 68.7953 15.4618H82.1224V19.6883H68.7953C68.9849 21.7265 69.5879 23.1432 70.6043 23.9384C71.6261 24.7337 73.3588 25.1313 75.8025 25.1313H82.1224V29.3578H75.5497C73.7749 29.3578 72.2107 29.2525 70.8571 29.0418C68.7242 28.6837 67.0309 27.7462 65.7775 26.2294C63.9763 24.049 63.0757 21.0997 63.0757 17.3815C63.0757 13.2577 64.3423 10.0451 66.8756 7.74358C67.7498 6.96412 68.6794 6.41903 69.6643 6.1083C70.6491 5.79756 71.971 5.6422 73.63 5.6422ZM100.608 29.3578L90.9388 11.9779V29.3578H86.104V5.6422H92.5741L101.999 23.3144V5.6422H106.794V29.3578H100.608ZM120.729 20.3677H116.685V29.3578H111.629V5.6422H123.226C126.539 5.6422 128.848 6.07143 130.154 6.92989C131.055 7.49868 131.747 8.24918 132.232 9.18137C132.716 10.1188 132.959 11.1458 132.959 12.2623C132.959 14.5112 132.39 16.2518 131.252 17.4842C130.541 18.2215 129.606 18.7798 128.448 19.159C129.369 19.4855 130.067 19.8331 130.541 20.2018C131.015 20.5704 131.442 21.1103 131.821 21.8213C132.105 22.3901 132.313 22.9352 132.445 23.4566C132.577 23.9779 132.679 24.7495 132.753 25.7712C132.89 27.4776 133.08 28.6731 133.322 29.3578H127.666C127.502 28.8153 127.323 27.6909 127.128 25.9845C127.013 24.6099 126.77 23.554 126.402 22.8167C126.033 22.0846 125.483 21.5053 124.75 21.0787C123.824 20.5783 122.483 20.3413 120.729 20.3677ZM116.685 9.87656V16.1333H123.755C124.94 16.1333 125.78 15.9569 126.275 15.604C127.039 15.0826 127.421 14.1689 127.421 12.8627C127.421 11.4144 126.849 10.4901 125.706 10.0899C125.306 9.94766 124.656 9.87656 123.755 9.87656H116.685ZM147.431 5.5C149.801 5.5 151.887 5.90553 153.688 6.71659C155.795 7.68565 157.275 9.30777 158.128 11.5829C158.791 13.3578 159.123 15.4434 159.123 17.8397C159.123 20.2571 158.72 22.3558 157.914 24.1359C156.898 26.2426 155.334 27.7225 153.222 28.5757C151.658 29.1919 149.856 29.5 147.818 29.5C145.143 29.5 142.82 29.0023 140.851 28.0069C139.192 27.1801 137.925 25.8766 137.051 24.0964C136.171 22.3163 135.731 20.1596 135.731 17.6264C135.731 13.0971 136.858 9.87393 139.113 7.95688C141.009 6.34529 143.781 5.52633 147.431 5.5ZM147.463 9.48947C145.145 9.48947 143.486 10.2479 142.486 11.7646C141.68 12.9496 141.277 14.8562 141.277 17.4842C141.277 20.2597 141.777 22.2979 142.778 23.5987C143.768 24.8785 145.343 25.5184 147.502 25.5184C149.588 25.5184 151.123 24.868 152.108 23.5671C153.088 22.261 153.577 20.2465 153.577 17.5237C153.577 15.0326 153.177 13.1366 152.377 11.8357C151.45 10.2926 149.812 9.51053 147.463 9.48947ZM174.481 29.3578H162.575V25.1313H173.414C175.147 25.1313 176.298 24.9654 176.866 24.6336C177.693 24.1333 178.107 23.3855 178.107 22.3901C178.107 21.2261 177.622 20.3861 176.653 19.87C176.105 19.5592 175.228 19.4039 174.022 19.4039H169.614C166.934 19.4039 165.001 18.9167 163.816 17.9424C163.084 17.3262 162.51 16.5573 162.093 15.6356C161.677 14.7087 161.469 13.7133 161.469 12.6494C161.469 10.9905 161.957 9.47367 162.931 8.09908C163.879 6.77189 165.396 5.9898 167.481 5.7528C168.192 5.67907 169.246 5.6422 170.641 5.6422H182.412V9.87656H171.787C170.196 9.9029 169.14 9.974 168.619 10.0899C167.55 10.3532 167.015 11.159 167.015 12.5072C167.015 13.6448 167.465 14.4032 168.366 14.7824C168.961 15.0668 169.957 15.209 171.352 15.209H175.16C177.103 15.209 178.549 15.3749 179.497 15.7067C181.177 16.2755 182.338 17.2709 182.981 18.6929C183.476 19.8305 183.724 21.0497 183.724 22.3506C183.724 23.7989 183.392 25.0918 182.728 26.2294C181.806 27.841 180.421 28.8127 178.573 29.1445C177.672 29.2867 176.308 29.3578 174.481 29.3578ZM196.671 5.6422H205.164V9.87656H198.591C196.88 9.87656 195.634 9.99506 194.855 10.2321C194.07 10.4691 193.417 10.9325 192.895 11.6224C192.542 12.0964 192.3 12.5704 192.169 13.0444C192.042 13.5184 191.929 14.3242 191.829 15.4618H205.164V19.6883H191.829C192.018 21.7265 192.624 23.1432 193.646 23.9384C194.662 24.7337 196.392 25.1313 198.836 25.1313H205.164V29.3578H198.591C196.811 29.3578 195.244 29.2525 193.891 29.0418C191.758 28.6837 190.065 27.7462 188.811 26.2294C187.01 24.049 186.109 21.0997 186.109 17.3815C186.109 13.2577 187.376 10.0451 189.909 7.74358C190.789 6.96412 191.721 6.41903 192.706 6.1083C193.685 5.79756 195.007 5.6422 196.671 5.6422Z" fill="#333333"/>
<defs>
<clipPath id="clip0_231_1433">
<rect width="30" height="25" fill="white" transform="translate(0 5)"/>
</clipPath>
</defs>
</svg>
