<svg xmlns:xlink="http://www.w3.org/1999/xlink" data-v-066b9d39="" width="24" height="24" viewBox="0 0 24 24" xmlns="http://www.w3.org/2000/svg"><path fill-rule="evenodd" clip-rule="evenodd" d="M10.23 8.326a.75.75 0 0 0 .096-1.056L7.98 4.454a.962.962 0 0 0-.104-.107A.744.744 0 0 0 7.25 4a.744.744 0 0 0-.626.347.962.962 0 0 0-.104.107L4.174 7.27a.75.75 0 0 0 1.152.96L6.5 6.822V17.29l-1.174-1.409a.75.75 0 1 0-1.152.96l2.346 2.816a.95.95 0 0 0 1.46 0l2.346-2.815a.75.75 0 0 0-1.152-.96L8 17.29V6.82l1.174 1.41a.75.75 0 0 0 1.056.095Z" fill="#66666C"></path><rect x="11.5" y="6" width="8.5" height="1.5" rx=".75" fill="#66666C"></rect><rect x="11.5" y="11.25" width="8.5" height="1.5" rx=".75" fill="#66666C"></rect><rect x="11.5" y="16.5" width="8.5" height="1.5" rx=".75" fill="#66666C"></rect></svg>