<svg width="30" height="25" viewBox="0 0 30 25" fill="none" xmlns="http://www.w3.org/2000/svg">
<mask id="mask0_602_30" style="mask-type:luminance" maskUnits="userSpaceOnUse" x="0" y="0" width="30" height="25">
<path d="M30 0H0V25H30V0Z" fill="white"/>
</mask>
<g mask="url(#mask0_602_30)">
<path d="M24.2628 24.5371H5.73781C5.41281 24.5371 5.10031 24.3642 4.93781 24.0926L0.962817 17.5618C0.876911 17.42 0.831543 17.2579 0.831543 17.0926C0.831543 16.9274 0.876911 16.7653 0.962817 16.6235L10.2253 0.932132C10.3878 0.648182 10.7003 0.475342 11.0378 0.475342H18.9753C19.3128 0.475342 19.6128 0.648182 19.7878 0.932132C23.2753 6.8334 28.5378 15.7346 28.9878 16.426C29.1128 16.5865 29.1753 16.7716 29.1753 16.9815C29.1753 17.2037 29.1003 17.4013 28.9628 17.5618C28.6378 18.0432 26.4378 21.784 25.0753 24.0803C24.9128 24.3642 24.6003 24.5371 24.2628 24.5371ZM6.26281 22.6852H23.7253C25.5878 19.5247 26.5878 17.8457 27.2003 16.9568C26.4878 15.9198 25.2378 13.821 22.7753 9.6605L18.4378 2.31485H11.5753L2.86281 17.0679L6.26281 22.6852Z" fill="black"/>
<path d="M24.2626 24.537C23.9376 24.537 23.6251 24.3765 23.4501 24.0803L10.2126 1.85803C10.1502 1.75265 10.1095 1.63616 10.0927 1.51522C10.0759 1.39429 10.0834 1.27127 10.1147 1.15319C10.146 1.03511 10.2006 0.924276 10.2753 0.827036C10.35 0.729786 10.4434 0.648026 10.5501 0.586416C10.6568 0.524806 10.7747 0.484566 10.8972 0.467976C11.0196 0.451386 11.1442 0.458776 11.2637 0.489726C11.3833 0.520676 11.4955 0.574586 11.594 0.648366C11.6924 0.722156 11.7752 0.814366 11.8376 0.919756L25.0751 23.142C25.1582 23.2831 25.2021 23.4433 25.2025 23.6065C25.2029 23.7697 25.1597 23.9301 25.0773 24.0716C24.9949 24.213 24.8762 24.3305 24.7332 24.4123C24.5902 24.494 24.4278 24.537 24.2626 24.537Z" fill="black"/>
<path d="M5.73773 24.537C5.57249 24.537 5.41018 24.494 5.26715 24.4123C5.12412 24.3305 5.00542 24.213 4.92303 24.0716C4.84064 23.9301 4.79746 23.7697 4.79785 23.6065C4.79824 23.4433 4.84217 23.2831 4.92523 23.142L18.1627 0.919762C18.2887 0.706932 18.4951 0.552242 18.7365 0.489732C18.978 0.427222 19.2347 0.462002 19.4502 0.586422C19.6657 0.710852 19.8223 0.914722 19.8856 1.15319C19.9489 1.39166 19.9137 1.6452 19.7877 1.85803L6.55023 24.0803C6.46526 24.2183 6.34607 24.3327 6.20391 24.4126C6.06175 24.4925 5.9013 24.5354 5.73773 24.537Z" fill="black"/>
<path d="M27.5 18.0061H1.875C1.3625 18.0061 0.9375 17.5864 0.9375 17.0802C0.9375 16.574 1.3625 16.1543 1.875 16.1543H27.5C28.0125 16.1543 28.4375 16.574 28.4375 17.0802C28.4375 17.5864 28.0125 18.0061 27.5 18.0061Z" fill="black"/>
</g>
</svg>
