<svg viewBox="0 0 160 160" fill="none" xmlns="http://www.w3.org/2000/svg">
    <path d="M116.368 0H43.6325C19.5349 0 0 19.5349 0 43.6325V116.368C0 140.465 19.5349 160 43.6325 160H116.368C140.465 160 160 140.465 160 116.368V43.6325C160 19.5349 140.465 0 116.368 0Z" fill="#FCB9B0"/>
    <g clip-path="url(#clip0_2660_29)">
        <path d="M126.4 96.5786H110.043H99.1904H96.4992L80.1597 112.918L63.8027 96.5786H61.1289H50.2592H33.9197V112.918H57.0397L68.5909 124.487L80.1597 136.038L91.7109 124.487L103.28 112.918H126.4V96.5786Z" fill="#131E29"/>
        <path d="M126.4 63.8823H33.9197V80.2219H126.4V63.8823Z" fill="#131E29"/>
        <path d="M126.4 31.1855H33.9197V47.5251H126.4V31.1855Z" fill="#131E29"/>
    </g>
    <defs>
        <clipPath id="clip0_2660_29">
            <rect width="92.48" height="104.853" fill="white" transform="translate(33.9199 31.1855)"/>
        </clipPath>
    </defs>
</svg>
