<svg width="64" height="64" viewBox="0 0 64 64" fill="none" xmlns="http://www.w3.org/2000/svg">
<g clip-path="url(#clip0_239_1400)">
<path d="M46.5472 0H17.453C7.81396 0 0 7.81396 0 17.453V46.5472C0 56.186 7.81396 64 17.453 64H46.5472C56.186 64 64 56.186 64 46.5472V17.453C64 7.81396 56.186 0 46.5472 0Z" fill="#333333"/>
<mask id="mask0_239_1400" style="mask-type:luminance" maskUnits="userSpaceOnUse" x="13" y="12" width="38" height="43">
<path d="M50.5599 12.4742H13.5679V54.4154H50.5599V12.4742Z" fill="white"/>
</mask>
<g mask="url(#mask0_239_1400)">
<path d="M50.5597 38.6315H44.0169H39.6759H38.5994L32.0636 45.1672L25.5208 38.6315H24.4513H20.1034H13.5676V45.1672H22.8156L27.4361 49.7948L32.0636 54.4152L36.6841 49.7948L41.3117 45.1672H50.5597V38.6315Z" fill="white"/>
<path d="M50.5597 25.553H13.5676V32.0888H50.5597V25.553Z" fill="white"/>
<path d="M50.5597 12.4742H13.5676V19.0101H50.5597V12.4742Z" fill="white"/>
</g>
</g>
<defs>
<clipPath id="clip0_239_1400">
<rect width="64" height="64" fill="white"/>
</clipPath>
</defs>
</svg>
