<?xml version="1.0" standalone="no"?>
<!DOCTYPE svg PUBLIC "-//W3C//DTD SVG 20010904//EN"
 "http://www.w3.org/TR/2001/REC-SVG-20010904/DTD/svg10.dtd">
<svg version="1.0" xmlns="http://www.w3.org/2000/svg"
 width="593.000000pt" height="151.000000pt" viewBox="0 0 593.000000 151.000000"
 preserveAspectRatio="xMidYMid meet">

<g transform="translate(0.000000,151.000000) scale(0.100000,-0.100000)"
fill="#000000" stroke="none">
<path d="M550 776 l0 -576 75 0 75 0 0 250 0 250 213 0 c117 0 229 -5 250 -11
48 -13 103 -61 116 -102 6 -18 15 -105 21 -194 5 -89 13 -169 16 -177 9 -23
194 -24 194 -1 0 8 -4 15 -10 15 -29 0 -41 51 -51 216 -6 101 -16 186 -25 211
-16 43 -73 103 -99 103 -8 0 -15 5 -15 10 0 6 5 10 10 10 23 0 99 84 121 133
32 71 33 200 2 268 -28 62 -84 114 -152 141 -54 21 -71 23 -398 26 l-343 3 0
-575z m677 422 c53 -35 76 -85 76 -168 0 -70 -10 -99 -51 -143 -45 -47 -101
-57 -339 -57 l-213 0 0 201 0 201 243 -4 244 -3 40 -27z"/>
<path d="M3840 775 l0 -575 65 0 65 0 0 52 0 51 35 -36 c60 -62 88 -72 200
-72 115 0 164 17 233 80 85 76 133 209 133 370 0 236 -99 378 -288 415 -102
20 -214 -15 -270 -85 -15 -19 -30 -35 -33 -35 -3 0 -4 92 -2 205 l3 205 -70 0
-71 0 0 -575z m477 135 c84 -47 119 -147 111 -315 -7 -124 -33 -199 -87 -248
-105 -95 -275 -55 -342 81 -21 41 -24 61 -24 167 0 149 19 218 75 279 22 24
54 48 72 54 51 17 149 8 195 -18z"/>
<path d="M1985 1285 c-16 -9 -40 -30 -51 -48 -12 -17 -91 -205 -175 -417 -167
-419 -174 -443 -131 -511 43 -69 40 -69 432 -69 336 0 354 1 385 20 18 11 40
36 49 54 34 72 27 101 -139 514 -86 213 -163 397 -171 410 -37 57 -133 79
-199 47z m128 -77 c15 -14 47 -81 82 -170 l57 -148 -31 -39 c-89 -112 -255
-206 -410 -230 -30 -5 -51 -4 -51 1 0 23 226 566 243 586 13 14 32 22 53 22
20 0 42 -9 57 -22z"/>
<path d="M2908 1057 c-53 -15 -64 -22 -130 -86 l-48 -45 0 57 0 57 -65 0 -65
0 0 -420 0 -420 69 0 70 0 3 278 c3 264 4 279 26 327 28 61 47 82 94 106 88
45 180 31 215 -33 16 -30 18 -66 21 -355 l3 -323 69 0 69 0 3 288 c3 278 4
288 27 335 28 57 70 91 132 108 95 25 168 -18 188 -111 7 -30 11 -169 11 -335
l0 -285 71 0 70 0 -3 332 -3 333 -30 60 c-38 74 -82 110 -165 131 -114 29
-187 9 -275 -77 l-51 -49 -31 44 c-56 79 -168 113 -275 83z"/>
<path d="M4980 1056 c-174 -39 -280 -176 -297 -387 -14 -177 48 -336 160 -413
131 -90 351 -83 468 13 109 90 164 273 134 447 -35 195 -133 307 -303 343 -64
13 -91 13 -162 -3z m199 -140 c40 -21 87 -81 107 -135 8 -25 18 -85 21 -132
12 -192 -73 -329 -215 -346 -128 -15 -228 72 -261 225 -31 148 18 317 112 380
62 41 164 45 236 8z"/>
</g>
</svg>
