<?xml version="1.0" standalone="no"?><!DOCTYPE svg PUBLIC "-//W3C//DTD SVG 1.1//EN" "http://www.w3.org/Graphics/SVG/1.1/DTD/svg11.dtd"><svg t="1771902684841" class="icon" viewBox="0 0 1024 1024" version="1.1" xmlns="http://www.w3.org/2000/svg" p-id="3441" xmlns:xlink="http://www.w3.org/1999/xlink" width="64" height="64"><path d="M319.3 906.2c-9.9 0-19.7-4-26.8-11.9l-219.1-244-0.1-0.1c-6-6.7-9-15-9.1-23.4 0-2.2 0.1-4.5 0.5-6.7 1.2-7.1 4.5-13.8 9.9-19.2 0.8-0.8 1.6-1.5 2.5-2.3 6.7-5.6 14.9-8.4 23.1-8.4H922c19.9 0 36 16.1 36 36s-16.1 36-36 36H181l165.1 183.9c6.2 6.9 9.2 15.5 9.2 24 0 9.9-4 19.7-11.9 26.8-6.9 6.3-15.5 9.3-24.1 9.3zM922.1 433.3H100.3c-19.9 0-36-16.1-36-36s16.1-36 36-36h741.3l-164.3-184c-6.1-6.9-9.1-15.4-9.2-24 0-9.9 4.1-19.8 12-26.9 14.8-13.2 37.6-12 50.8 2.9l217.9 244v0.1c6 6.7 9 15.1 9.1 23.5 0 2.2-0.1 4.4-0.5 6.5-1.2 7.1-4.6 14-10.1 19.4-0.7 0.7-1.5 1.4-2.3 2.1-6.6 5.7-14.8 8.4-22.9 8.4z" fill="#666666" p-id="3442"></path></svg>