<svg width="160" height="131" viewBox="0 0 160 131" fill="none" xmlns="http://www.w3.org/2000/svg">
<circle cx="76.3916" cy="67" r="64" fill="#28C76F" fill-opacity="0.05"/>
<circle cx="76.3916" cy="67" r="54" fill="#28C76F" fill-opacity="0.15"/>
<circle cx="76.3916" cy="67" r="44" fill="#48CF85"/>
<path d="M57.3916 69.2L69.4329 81.266C69.8331 81.667 70.4861 81.6558 70.8723 81.2413L94.3916 56" stroke="white" stroke-width="10" stroke-linecap="round"/>
<path d="M140.938 0L143.76 7.62466L151.384 10.446L143.76 13.2674L140.938 20.8921L138.117 13.2674L130.492 10.446L138.117 7.62466L140.938 0Z" fill="#28DAC6"/>
<path d="M150.748 27.0651L153.591 29.4253L157.234 28.8031L154.874 31.6466L155.496 35.2892L152.652 32.929L149.01 33.5513L151.37 30.7077L150.748 27.0651Z" fill="#28DAC6"/>
<path d="M5.1398 107.31L6.42225 110.776L9.888 112.058L6.42225 113.341L5.1398 116.807L3.85736 113.341L0.391602 112.058L3.85736 110.776L5.1398 107.31Z" fill="#28DAC6"/>
</svg>
