<?xml version="1.0" standalone="no"?><!DOCTYPE svg PUBLIC "-//W3C//DTD SVG 1.1//EN" "http://www.w3.org/Graphics/SVG/1.1/DTD/svg11.dtd"><svg t="1773719132241" class="icon" viewBox="0 0 1024 1024" version="1.1" xmlns="http://www.w3.org/2000/svg" p-id="4486" xmlns:xlink="http://www.w3.org/1999/xlink" width="64" height="64"><path d="M166 403.612c22.092 0 40-17.908 40-40v-62h140v62c2.112 53.072 77.906 53.032 80 0v-214c-8.264-199.044-291.81-198.89-300 0v214c0 22.092 17.908 40 40 40z m40-254c3.856-92.888 136.178-92.816 140 0v72h-140z m234.172 590.38c42.236 42.716 42.32 112.166 0.25 154.988l-61.524 64.29c-15.292 15.976-40.614 16.502-56.554 1.244-15.96-15.274-16.516-40.594-1.244-56.556l42.436-44.344H212.5C95.328 859.612 0 764.286 0 647.112v-161.5c2.112-53.072 77.906-53.032 80 0v161.5c0 73.06 59.44 132.5 132.5 132.5h153.826l-46.334-45.442c-15.772-15.468-16.018-40.794-0.548-56.566s40.796-16.016 56.566-0.548l63.73 62.502 0.432 0.434zM1024 380.112v161.5c-2.112 53.072-77.906 53.032-80 0v-161.5c0-73.06-59.44-132.5-132.5-132.5h-153.826l46.334 45.442c15.772 15.468 16.018 40.794 0.548 56.566-15.478 15.778-40.802 16.01-56.566 0.548l-63.73-62.502-0.436-0.434c-42.236-42.716-42.32-112.166-0.25-154.988l61.524-64.29c15.272-15.96 40.592-16.516 56.554-1.244 15.96 15.274 16.516 40.594 1.244 56.556L660.46 167.61h151.036C928.672 167.612 1024 262.94 1024 380.112z m-60 319.5c0 22.092-17.908 40-40 40h-21.99c-4.884 42.434-39.134 130.046-84.268 180.73 26.094 14.15 57.262 23.27 94.258 23.27 22.092 0 40 17.908 40 40s-17.908 40-40 40c-57.514 0-109.952-15.826-155.89-47.042-45.574 31.018-98.234 47.042-156.11 47.042-22.092 0-40-17.908-40-40s17.908-40 40-40c34.546 0 66.088-7.724 94.44-23.066-12.404-14.704-23.884-30.858-34.378-48.398-11.342-18.958-5.168-43.52 13.79-54.862 18.956-11.344 43.52-5.168 54.862 13.788 7.5 12.534 16.55 25.656 27.34 38.332a282.312 282.312 0 0 0 17.192-22.642c27.328-39.914 41.51-81.504 47.386-107.152H588c-53.072-2.112-53.032-77.906 0-80h130v-40c2.112-53.072 77.906-53.032 80 0v40h126c22.092 0 40 17.908 40 40z" p-id="4487" fill="#666666"></path></svg>