<svg width="64" height="64" viewBox="0 0 64 64" fill="none" xmlns="http://www.w3.org/2000/svg">
<g clip-path="url(#clip0_316_1325)">
<path d="M57.6 9.6H28.416L25.6 0H6.4C4.70427 0.00536992 3.07952 0.681378 1.88045 1.88045C0.681378 3.07952 0.00536992 4.70427 0 6.4L0 48C0.00536992 49.6957 0.681378 51.3205 1.88045 52.5196C3.07952 53.7186 4.70427 54.3946 6.4 54.4H28.8L32 64H57.6C59.2957 63.9946 60.9205 63.3186 62.1196 62.1196C63.3186 60.9205 63.9946 59.2957 64 57.6V16C63.9946 14.3043 63.3186 12.6795 62.1196 11.4804C60.9205 10.2814 59.2957 9.60537 57.6 9.6ZM35.84 34.816C36.9018 36.7651 38.1789 38.592 39.648 40.256L37.92 41.952L35.84 34.816ZM38.304 32.384H35.2L34.144 29.056H46.912C45.8723 32.2925 44.1725 35.278 41.92 37.824C40.5162 36.1507 39.3034 34.3261 38.304 32.384ZM60.8 57.6C60.7977 58.448 60.4598 59.2606 59.8602 59.8602C59.2606 60.4598 58.448 60.7977 57.6 60.8H35.2L41.6 54.4L39.008 45.536L41.952 42.592L50.528 51.2L52.8 48.864L44.192 40.288C47.0818 37.07 49.185 33.2251 50.336 29.056H54.4V25.728H42.752V22.4H39.424V25.728H33.152L29.376 12.8H57.6C58.448 12.8023 59.2606 13.1402 59.8602 13.7398C60.4598 14.3394 60.7977 15.152 60.8 16V57.6Z" fill="#333333"/>
<path d="M11.0341 37H5.76136L13.7955 13.7273H20.1364L28.1591 37H22.8864L17.0568 19.0455H16.875L11.0341 37ZM10.7045 27.8523H23.1591V31.6932H10.7045V27.8523Z" fill="white"/>
</g>
<defs>
<clipPath id="clip0_316_1325">
<rect width="64" height="64" fill="white"/>
</clipPath>
</defs>
</svg>
